<svg width="96" height="96" viewBox="0 0 96 96" fill="none" xmlns="http://www.w3.org/2000/svg">
  <rect width="96" height="96" rx="20" fill="#0052FF"/>
  <path d="M48 24C34.745 24 24 34.745 24 48C24 61.255 34.745 72 48 72C58.48 72 67.34 65.625 70.91 56.5H57.92C55.18 59.51 51.34 61.4 47.04 61.4C39.01 61.4 32.5 54.89 32.5 46.86C32.5 38.83 39.01 32.32 47.04 32.32C51.44 32.32 55.39 34.24 58.17 37.33H71.04C67.44 28.3 58.56 22 48 22C34.19 22 22.72 33.47 22.72 47.28C22.72 61.09 34.19 72.56 48 72.56C61.81 72.56 73.28 61.09 73.28 47.28V44H48V52H63.88C62.04 58.94 55.69 64.04 48 64.04C37.6 64.04 29.24 55.68 29.24 45.28C29.24 34.88 37.6 26.52 48 26.52C55.25 26.52 61.39 30.26 64.8 35.76H76.18C71.98 28.11 60.95 24 48 24Z" fill="white"/>
</svg>
